# xmcd CD database file
#
# Track frame offsets:
#	150
#	17845
#	33812
#	42337
#	58273
#	72919
#	93866
#	106117
#	116103
#	132289
#	146532
#	157254
#
# Disc length: 2401 seconds
#
# Revision: 0
# Processed by: cddbd v1.5.2PL0 Copyright (c) Steve Scherf et al.
# Submitted via: CDex 1.51
#
DISCID=a5095f0c
DTITLE=Ilg Mariano - Eisenhans
DYEAR=2003
DGENRE=Jazz
TTITLE0=The Choice of Paris
TTITLE1=Logos
TTITLE2=Pleroma
TTITLE3=From Copper to Iron
TTITLE4=Vajra
TTITLE5=Golden Light
TTITLE6=Mother
TTITLE7=Father
TTITLE8=Mentor
TTITLE9=Wild Man
TTITLE10=Marriage
TTITLE11=Tsuyu
EXTD=YEAR: 2003
EXTT0=
EXTT1=
EXTT2=
EXTT3=
EXTT4=
EXTT5=
EXTT6=
EXTT7=
EXTT8=
EXTT9=
EXTT10=
EXTT11=
PLAYORDER=
